<svg xmlns="http://www.w3.org/2000/svg" width="60.413" height="46.183" viewBox="0 0 60.413 46.183">
  <g id="Access_to_original_source_code" data-name="Access to original source code" transform="translate(-626.896 -341.312)">
    <g id="Group_986" data-name="Group 986" transform="translate(641.1 356.695)">
      <g id="Group_985" data-name="Group 985">
        <g id="Group_984" data-name="Group 984">
          <path id="Path_2476" data-name="Path 2476" d="M665.038,350.254a2.013,2.013,0,0,0-1.966,2.18l.019,4.086-4.607.022-.01-1.971a1.976,1.976,0,0,0-1.975-2.135,2.039,2.039,0,0,0-2,2.183l.01,1.971-5.058,0a7.263,7.263,0,0,0-14.3,1.846,7.174,7.174,0,0,0,7.3,7.222,7.337,7.337,0,0,0,6.874-5.2l17.826-.088-.163-7.956A1.983,1.983,0,0,0,665.038,350.254Zm-22.6,11.371a3.233,3.233,0,1,1,3.227-3.239A3.245,3.245,0,0,1,642.437,361.625Z" transform="translate(-635.153 -350.254)" fill="#ffc603"/>
        </g>
      </g>
    </g>
    <g id="Group_987" data-name="Group 987" transform="translate(626.896 341.312)">
      <path id="Path_2477" data-name="Path 2477" d="M662.935,364.467c-3.041-1.638-3.356-4.409-3.437-7.263-.084-2.935-.029-5.876-.2-8.808-.127-2.205-1.063-2.986-3.291-3.1-.858-.046-1.722-.009-2.625-.009v-3.864c2.675-.081,5.329-.165,7.726,1.307a4.685,4.685,0,0,1,2.082,3.341,35.134,35.134,0,0,1,.5,4.724c.091,2.338.036,4.679.074,7.019a7.748,7.748,0,0,0,.217,1.6,3.611,3.611,0,0,0,3.344,3.031l.9.146v3.635a1.108,1.108,0,0,1-.261.117c-2.919.377-4.081,1.574-4.189,4.512-.088,2.367-.019,4.739-.077,7.107a33.468,33.468,0,0,1-.3,3.85c-.463,3.275-1.817,4.691-5.049,5.317a22.133,22.133,0,0,1-2.766.3c-.71.045-1.424.009-2.193.009v-3.888c1.008,0,1.99.064,2.961-.012,1.973-.157,2.823-.944,2.94-2.94.146-2.512.122-5.032.191-7.549.029-1.106.072-2.216.169-3.318A6,6,0,0,1,662.935,364.467Z" transform="translate(-607.817 -341.261)" fill="#ffc603"/>
      <path id="Path_2478" data-name="Path 2478" d="M641.694,387.448a18.418,18.418,0,0,1-6.181-.556,4.842,4.842,0,0,1-3.587-3.995,37.6,37.6,0,0,1-.518-5.087c-.095-2.247-.034-4.5-.072-6.752a7.75,7.75,0,0,0-.225-1.6,3.469,3.469,0,0,0-2.942-2.893c-.408-.072-.815-.158-1.273-.246V362.7a2.037,2.037,0,0,1,.385-.146c2.921-.509,3.957-1.645,4.055-4.648.077-2.34-.007-4.684.074-7.022a35.664,35.664,0,0,1,.439-4.466,5.213,5.213,0,0,1,4.786-4.64c1.65-.237,3.322-.31,5.068-.463v4.015c-.8,0-1.6-.034-2.4.005-2.5.127-3.325.786-3.506,3.275-.193,2.658-.11,5.335-.182,8a27.293,27.293,0,0,1-.236,3.226,5.81,5.81,0,0,1-3.21,4.66c2.983,1.581,3.351,4.28,3.434,7.067.067,2.34-.01,4.683.036,7.024a22.493,22.493,0,0,0,.313,2.852,2.255,2.255,0,0,0,2.013,2.009c.822.136,1.664.16,2.5.215.382.024.769,0,1.23,0Z" transform="translate(-626.896 -341.312)" fill="#ffc603"/>
    </g>
  </g>
</svg>
