<svg xmlns="http://www.w3.org/2000/svg" width="54.878" height="54.394" viewBox="0 0 54.878 54.394">
  <g id="Dart_Benefits" data-name="Dart Benefits" transform="translate(-2276.129 -610.008)">
    <path id="Path_1492" data-name="Path 1492" d="M2351.3,662.634c0-1.5-1.217-2.027-2.721-2.027l-19.572-.006.021-29.528h43.012V638.4c0,1.5.411,2.831,1.913,2.831s2.026-1.27,2.026-2.774V616.735a2.892,2.892,0,0,0-2.723-2.913h-45.574a2.722,2.722,0,0,0-2.722,2.722l-.021,45.19a2.722,2.722,0,0,0,2.722,2.722l20.867.2C2350.036,664.653,2351.3,664.137,2351.3,662.634Zm20.74-45.024-.021,9.454h-43.012l.021-9.454Z" transform="translate(-48.814 -3.814)" fill="#ffc603"/>
    <path id="Path_1493" data-name="Path 1493" d="M2335.936,626.995h.3a2.4,2.4,0,1,0,0-4.793h-.3a2.4,2.4,0,0,0,0,4.793Z" transform="translate(-49.885 -5.799)" fill="#ffc603"/>
    <path id="Path_1494" data-name="Path 1494" d="M2344.937,626.995h.3a2.4,2.4,0,1,0,0-4.793h-.3a2.4,2.4,0,0,0,0,4.793Z" transform="translate(-52.724 -5.799)" fill="#ffc603"/>
    <path id="Path_1495" data-name="Path 1495" d="M2353.937,626.995h.3a2.4,2.4,0,1,0,0-4.793h-.3a2.4,2.4,0,0,0,0,4.793Z" transform="translate(-55.562 -5.799)" fill="#ffc603"/>
    <path id="Path_1870" data-name="Path 1870" d="M196.41,1396.723a1.9,1.9,0,0,0,2.385-1.236l8.14-25.641a1.9,1.9,0,1,0-3.621-1.15l-8.14,25.641A1.9,1.9,0,0,0,196.41,1396.723Z" transform="translate(2113.616 -732.411)" fill="#ffc603"/>
    <path id="Path_1871" data-name="Path 1871" d="M184.87,1393.3a1.9,1.9,0,0,0,2.9-2.46l-4.047-4.76,4.21-3.976a1.9,1.9,0,0,0-2.609-2.762l-5.52,5.214a1.9,1.9,0,0,0-.143,2.611Z" transform="translate(2119.25 -737.646)" fill="#ffc603"/>
    <path id="Path_1872" data-name="Path 1872" d="M217.6,1384.413l4.21,3.976-4.046,4.76a1.9,1.9,0,0,0,2.9,2.461l5.214-6.134a1.9,1.9,0,0,0-.143-2.611l-5.52-5.214a1.9,1.9,0,0,0-2.609,2.762Z" transform="translate(2104.677 -739.246)" fill="#ffc603"/>
  </g>
</svg>
