<svg xmlns="http://www.w3.org/2000/svg" width="45.803" height="52" viewBox="0 0 45.803 52">
  <g id="Expedite_development_speed" data-name="Expedite development speed" transform="translate(-924.385 -1068.528)">
    <path id="Path_1754" data-name="Path 1754" d="M964.768,1156.833a20.059,20.059,0,0,1-2.736,0,1.652,1.652,0,1,0-.228,3.3c.528.037,1.065.055,1.6.055s1.065-.018,1.593-.054a1.653,1.653,0,1,0-.226-3.3Z" transform="translate(-16.115 -39.658)" fill="#0092ff"/>
    <path id="Path_1755" data-name="Path 1755" d="M964.545,1082.6a1.824,1.824,0,0,0,.155-.13l2.258-2.334a1.928,1.928,0,1,0-2.772-2.681l-2.257,2.333c-.045.046-.078.1-.117.149a22.794,22.794,0,0,0-12.6-5.122v-2.428h3.034a1.928,1.928,0,0,0,0-3.856h-9.925a1.928,1.928,0,0,0,0,3.856h3.035v2.428a22.792,22.792,0,0,0-12.761,5.26,1.955,1.955,0,0,0-.227-.287l-2.257-2.333a1.928,1.928,0,1,0-2.771,2.681l2.258,2.334a1.9,1.9,0,0,0,.314.261,22.883,22.883,0,0,0,8.5,36.017,1.653,1.653,0,0,0,1.281-3.048,19.6,19.6,0,1,1,15.2-.007,1.652,1.652,0,1,0,1.284,3.045,22.882,22.882,0,0,0,8.366-36.139Z" transform="translate(0 0)" fill="#0092ff"/>
    <path id="Path_1756" data-name="Path 1756" d="M966.545,1098.723a1.928,1.928,0,0,0-2.421,1.254l-6.634,20.9a1.928,1.928,0,1,0,3.676,1.167l6.634-20.9A1.928,1.928,0,0,0,966.545,1098.723Z" transform="translate(-14.827 -13.52)" fill="#0092ff"/>
    <path id="Path_1757" data-name="Path 1757" d="M948.217,1104.676a1.929,1.929,0,0,0-2.726-.078l-4.5,4.25a1.928,1.928,0,0,0-.145,2.65l4.249,5a1.928,1.928,0,1,0,2.938-2.5l-3.064-3.6,3.169-2.993A1.928,1.928,0,0,0,948.217,1104.676Z" transform="translate(-7.188 -15.963)" fill="#0092ff"/>
    <path id="Path_1758" data-name="Path 1758" d="M979.217,1128.269a1.927,1.927,0,0,0,2.718-.221l4.249-5a1.928,1.928,0,0,0-.145-2.65l-4.5-4.249a1.928,1.928,0,0,0-2.648,2.8l3.169,2.993L979,1125.551A1.928,1.928,0,0,0,979.217,1128.269Z" transform="translate(-24.208 -21.151)" fill="#0092ff"/>
  </g>
</svg>
