<svg xmlns="http://www.w3.org/2000/svg" width="51.583" height="52" viewBox="0 0 51.583 52">
  <g id="Faster_Code_Writing" data-name="Faster Code Writing" transform="translate(0 1.85)">
    <path id="Path_1272" data-name="Path 1272" d="M2485.249,170.6a1.928,1.928,0,0,0-2.727-.078l-9.918,9.367a1.927,1.927,0,0,0-.145,2.651l9.367,11.02a1.929,1.929,0,1,0,2.939-2.5l-8.182-9.626,8.588-8.111A1.928,1.928,0,0,0,2485.249,170.6Z" transform="translate(-2472 -155.755)" fill="#fc7754"/>
    <path id="Path_1273" data-name="Path 1273" d="M2562.17,179.894l-9.918-9.367a1.928,1.928,0,1,0-2.648,2.8l8.587,8.111-8.182,9.626a1.929,1.929,0,0,0,2.939,2.5l9.367-11.02A1.927,1.927,0,0,0,2562.17,179.894Z" transform="translate(-2511.192 -155.755)" fill="#fc7754"/>
    <path id="Path_2481" data-name="Path 2481" d="M733.422,359.534a1.33,1.33,0,0,0-.993-.468,1.456,1.456,0,0,0-.35.063l-6.361,3.062,5-18.183a1.347,1.347,0,0,0,.146-.563,1.275,1.275,0,0,0-.38-.921,1.245,1.245,0,0,0-.934-.392h-2.638a1.27,1.27,0,0,0-.818.282,1.331,1.331,0,0,0-.467.719l-5.872,25.781a1.213,1.213,0,0,0,.38,1.218,1.3,1.3,0,0,0,.9.344,1.488,1.488,0,0,0,.351-.03l4.917-3.157-5.754,25.25a1.284,1.284,0,0,0,.876,1.53,2.24,2.24,0,0,0,.408.063,1.275,1.275,0,0,0,1.227-.782l10.567-32.442A1.239,1.239,0,0,0,733.422,359.534Z" transform="translate(-700.807 -343.983)" fill="#fc7754"/>
  </g>
</svg>
