<svg xmlns="http://www.w3.org/2000/svg" width="48.714" height="55" viewBox="0 0 48.714 55">
  <g id="Flexible_UI" data-name="Flexible UI" transform="translate(-1244.29 -1226.987)">
    <path id="Path_1826" data-name="Path 1826" d="M1280.13,1265.361a1.965,1.965,0,0,0-1.965,1.965v4.056H1248.22v-33.69h29.945v3.74a1.965,1.965,0,0,0,3.93,0v-12.48a1.965,1.965,0,0,0-1.965-1.965h-33.875a1.965,1.965,0,0,0-1.965,1.965v51.07a1.964,1.964,0,0,0,1.965,1.965h33.875a1.965,1.965,0,0,0,1.965-1.965v-12.7A1.965,1.965,0,0,0,1280.13,1265.361Zm-1.965-34.444v2.844H1248.22v-2.844Zm-29.945,47.139v-2.744h29.945v2.744Z" transform="translate(0)" fill="#fc7754"/>
    <path id="Path_2475" data-name="Path 2475" d="M528.431,727.385l.175,1.24a.5.5,0,0,0,.2.336l6.276,4.629a.9.9,0,0,0,1.265-.192l.173-.234a.9.9,0,0,0-.192-1.264l-5.579-4.115a.466.466,0,0,1-.185-.309l-.154-1.087a2.919,2.919,0,0,0-1.115-1.905l-1.7-1.3a2.914,2.914,0,0,0-1.615-.6l-8.681-.468a.9.9,0,0,0-.825.44l-.538.9a.906.906,0,0,0-.044.844l3.658,7.9a2.915,2.915,0,0,0,1.172,1.291l1.844,1.08a2.91,2.91,0,0,0,2.188.311l1.057-.267a.466.466,0,0,1,.356.054l3,1.884a.9.9,0,0,0,1.243-.3l.152-.247a.9.9,0,0,0-.3-1.245l-3.74-2.335a.5.5,0,0,0-.388-.059l-1.217.307a2.543,2.543,0,0,1-1.907-.271l-.873-.512a2.537,2.537,0,0,1-.964-1.009l-2.653-5.039a.041.041,0,0,1,.059-.053l3.113,2.129a2.281,2.281,0,0,0,.4,1.751,2.575,2.575,0,0,0,2.032,1.178,2.51,2.51,0,1,0-1.253-4.661l-3.012-2.062a.041.041,0,0,1,.027-.075l5.464.536a2.54,2.54,0,0,1,1.3.512l.806.618A2.54,2.54,0,0,1,528.431,727.385Zm-4.262-.15a1.111,1.111,0,1,1-1.111,1.111A1.11,1.11,0,0,1,524.169,727.236Z" transform="translate(756.308 525.76)" fill="#fc7754"/>
    <path id="Path_2214" data-name="Path 2214" d="M1.646,19.311a1.643,1.643,0,0,1-.73-3.117c.018-.01,2.495-1.307,2.538-3.012a4.5,4.5,0,0,0-.7-2.445A7.251,7.251,0,0,1,1.8,5.981C2.356,1.757,6.583.165,6.763.1A1.644,1.644,0,0,1,7.9,3.184c-.064.024-2.553,1.011-2.847,3.229a4.063,4.063,0,0,0,.625,2.821,7.679,7.679,0,0,1,1.061,4.028c-.091,3.722-4.192,5.792-4.368,5.878A1.641,1.641,0,0,1,1.646,19.311Z" transform="translate(1261.215 1237.235) rotate(22)" fill="#fc7754"/>
  </g>
</svg>
