<svg xmlns="http://www.w3.org/2000/svg" width="54.025" height="52" viewBox="0 0 54.025 52">
  <g id="Hot_reload" data-name="Hot reload" transform="translate(-1078.599 -1082.758)">
    <path id="Path_1759" data-name="Path 1759" d="M1091.869,1137.962a21.354,21.354,0,0,1-1.69-2.665,2.374,2.374,0,0,0-4.187,2.24,26.236,26.236,0,0,0,2.067,3.258,2.374,2.374,0,0,0,3.81-2.832Z" transform="translate(-2.288 -16.501)" fill="#fc7754"/>
    <path id="Path_1760" data-name="Path 1760" d="M1101.564,1147.391a21.117,21.117,0,0,1-2.6-1.714,2.374,2.374,0,1,0-2.9,3.76,25.888,25.888,0,0,0,3.189,2.1,2.374,2.374,0,1,0,2.312-4.147Z" transform="translate(-5.322 -20.086)" fill="#fc7754"/>
    <path id="Path_1761" data-name="Path 1761" d="M1130.462,1098.42a26,26,0,0,0-45.579-3.927l-1.72-4.117a2.374,2.374,0,1,0-4.381,1.831l3.677,8.8c.008.018.018.034.026.052.02.043.043.085.065.127a2.337,2.337,0,0,0,.142.24c.024.035.047.07.073.1a2.43,2.43,0,0,0,.227.258c.013.012.024.026.037.038a2.347,2.347,0,0,0,.709.457l.054.02a2.263,2.263,0,0,0,.35.1c.026.005.052.012.078.017a2.332,2.332,0,0,0,.385.037c.014,0,.026,0,.041,0h.037l.094,0,8.836-.482a2.374,2.374,0,0,0-.259-4.741l-4.749.26a21.244,21.244,0,0,1,37.769,19.071,21.313,21.313,0,0,1-24.763,12.847,2.374,2.374,0,1,0-1.125,4.613,25.652,25.652,0,0,0,6.083.732,26.122,26.122,0,0,0,24.22-16.447A25.821,25.821,0,0,0,1130.462,1098.42Z" fill="#fc7754"/>
  </g>
</svg>
