<svg xmlns="http://www.w3.org/2000/svg" width="58.376" height="52" viewBox="0 0 58.376 52">
  <g id="MVP_DevelopmentMVP_Development" data-name="MVP DevelopmentMVP Development" transform="translate(-450.682 -1080.437)">
    <path id="Path_1742" data-name="Path 1742" d="M508.418,1113.955l-.057-.19a4.675,4.675,0,0,0-2.433-3.039,4.616,4.616,0,0,0-2.015-.437v-16.028h2.212a2.278,2.278,0,0,0,2.278-2.278v-9.27a2.277,2.277,0,0,0-2.278-2.278H471.956a2.277,2.277,0,0,0-2.278,2.278v9.27a2.278,2.278,0,0,0,2.278,2.278h2.211v12.864c-8.9-2.187-14.369-.117-17.57,2.408a7.7,7.7,0,0,0-2.858,6.9l1.143,10.964-2.159.225a2.278,2.278,0,0,0,.234,4.544,2.3,2.3,0,0,0,.24-.013l4.424-.462a2.276,2.276,0,0,0,2.029-2.5l-1.38-13.229a3.215,3.215,0,0,1,1.149-2.852c2.589-2.042,8.868-4.58,21.823,1.375a1.793,1.793,0,0,1,1.067,2.117.736.736,0,0,1-.458.5c-.531.234-2.768.777-9.282-2.061-.217-.094-.439-.193-.664-.294a2.278,2.278,0,0,0-1.868,4.155c.241.109.48.214.713.316,6.038,2.63,10.15,3.282,12.938,2.053a5.273,5.273,0,0,0,2.931-3.193,6.306,6.306,0,0,0-3.475-7.73c-1.548-.711-3.018-1.311-4.421-1.822v-14.263h20.636v17.332c-4.947,2.01-7.663,3.171-7.693,3.184a2.278,2.278,0,0,0,1.794,4.187c.032-.014,3.333-1.427,9.327-3.845a3.208,3.208,0,0,1,1.121-.284,1.335,1.335,0,0,1,.088.231l.058.193a11.824,11.824,0,0,1,.485,1.994c-.036.018-.083.038-.142.06l-26.93,10.371-10.921-5.1a2.278,2.278,0,1,0-1.926,4.128l11.8,5.505a2.278,2.278,0,0,0,1.782.061l27.834-10.718C510.212,1119.957,509.044,1116.053,508.418,1113.955Zm-31.973-24.249h-2.211v-4.714h29.614v4.714h-27.4Z" transform="translate(0 0)" fill="#0092ff"/>
    <path id="Path_1743" data-name="Path 1743" d="M511.728,1107.988a2.278,2.278,0,0,0-2.278-2.278h-6.443a2.278,2.278,0,1,0,0,4.555h6.443A2.278,2.278,0,0,0,511.728,1107.988Z" transform="translate(-17.479 -8.826)" fill="#0092ff"/>
  </g>
</svg>
