<svg xmlns="http://www.w3.org/2000/svg" width="52.009" height="52" viewBox="0 0 52.009 52">
  <g id="Material_Design_and_Cupertino" data-name="Material Design and Cupertino" transform="translate(-248.408 -686.82)">
    <g id="Group_983" data-name="Group 983" transform="translate(248.408 686.82)">
      <path id="Path_2473" data-name="Path 2473" d="M279.876,686.82a25.981,25.981,0,0,0-19.533,43.14c.054.072.117.135.171.2a25.969,25.969,0,0,0,38.723,0c.135-.153.279-.306.406-.469a25.981,25.981,0,0,0-19.767-42.869Zm15.54,39.1H282.842l12.574-20.768Zm-15.792-2.885-13.142-22.273h26.635Zm.252-31.981a21.687,21.687,0,0,1,14.413,5.471H265.464A21.687,21.687,0,0,1,279.876,691.056Zm-3.47,34.865H264.535l-.216-20.5Zm-16.342-22.084.2,18.4a21.626,21.626,0,0,1-.2-18.4Zm19.812,30.746a21.652,21.652,0,0,1-13.142-4.426h26.284A21.652,21.652,0,0,1,279.876,734.583Zm19.767-30.854a21.647,21.647,0,0,1,0,18.18Z" transform="translate(-253.872 -686.82)" fill="#0092ff"/>
    </g>
  </g>
</svg>
