<svg xmlns="http://www.w3.org/2000/svg" width="52.735" height="67.028" viewBox="0 0 52.735 67.028">
  <path id="Population_of_Widget" data-name="Population of Widget" d="M662.914,1082.008a2.469,2.469,0,0,0-4.247.155,2.461,2.461,0,0,0-.387,1c-.06.4-1.547,9.755-9.123,9.755-7.6,0-9.238-9.362-9.309-9.789a2.768,2.768,0,0,0-4.864-1.118c-3.547,5.432-7.018,17.923,4.422,27.2l1.366,27.984a2.487,2.487,0,0,0,2.482,2.367l.124,0a2.488,2.488,0,0,0,2.364-2.606l-1.422-29.126a2.49,2.49,0,0,0-1-1.876c-7.076-5.256-7.33-11.577-6.3-15.95,2.138,4.032,5.969,7.9,12.141,7.9,5.981,0,9.716-3.619,11.84-7.512.932,4.34.5,10.432-6.417,15.567a2.49,2.49,0,0,0-1,1.876l-1.422,29.126a2.488,2.488,0,0,0,2.364,2.606l.124,0a2.488,2.488,0,0,0,2.482-2.367l1.366-27.984C669.933,1099.932,666.461,1087.441,662.914,1082.008Z" transform="translate(-963.162 -787.797) rotate(-20)" fill="#ffc603"/>
</svg>
