<svg xmlns="http://www.w3.org/2000/svg" width="50.827" height="50" viewBox="0 0 50.827 50">
  <g id="Reactive_Framework" data-name="Reactive Framework" transform="translate(-1231.045 -1073.606)">
    <path id="Path_1762" data-name="Path 1762" d="M1279.976,1073.606h-47.034a1.9,1.9,0,0,0-1.9,1.9v46.208a1.9,1.9,0,0,0,1.9,1.9h47.034a1.9,1.9,0,0,0,1.9-1.9V1075.5A1.9,1.9,0,0,0,1279.976,1073.606Zm-1.9,46.208h-43.242V1077.4h43.242Z" fill="#fc7754"/>
    <path id="Path_1763" data-name="Path 1763" d="M1252.6,1103.765h25.617a1.9,1.9,0,0,0,1.9-1.9v-9.2a1.9,1.9,0,0,0-1.9-1.9H1252.6a1.9,1.9,0,0,0-1.9,1.9v9.2A1.9,1.9,0,0,0,1252.6,1103.765Zm1.9-9.2h21.825v5.4H1254.5Z" transform="translate(-9.011 -7.868)" fill="#fc7754"/>
    <path id="Path_1764" data-name="Path 1764" d="M1251.6,1134.749h9.2a1.9,1.9,0,0,0,1.9-1.9v-9.2a1.9,1.9,0,0,0-1.9-1.9h-9.2a1.9,1.9,0,0,0-1.9,1.9v9.2A1.9,1.9,0,0,0,1251.6,1134.749Zm1.9-9.2h5.4v5.4h-5.4Z" transform="translate(-8.552 -22.067)" fill="#fc7754"/>
    <path id="Path_1765" data-name="Path 1765" d="M1291.8,1121.76h-9.2a1.9,1.9,0,0,0-1.9,1.9v9.2a1.9,1.9,0,0,0,1.9,1.9h9.2a1.9,1.9,0,0,0,1.9-1.9v-9.2A1.9,1.9,0,0,0,1291.8,1121.76Zm-1.9,9.2h-5.4v-5.4h5.4Z" transform="translate(-22.758 -22.067)" fill="#fc7754"/>
  </g>
</svg>
