<?xml version="1.0" encoding="UTF-8"?>
<svg width="72px" height="86px" viewBox="0 0 72 86" version="1.1" xmlns="http://www.w3.org/2000/svg" xmlns:xlink="http://www.w3.org/1999/xlink">
    <!-- Generator: Sketch 55 (78076) - https://sketchapp.com -->
    <title>andriod</title>
    <desc>Created with Sketch.</desc>
    <g id="pages" stroke="none" stroke-width="1" fill="none" fill-rule="evenodd">
        <g id="Home-2560" transform="translate(-813.000000, -7977.000000)" fill="#A4C639" fill-rule="nonzero">
            <g id="technologies" transform="translate(0.000000, 7666.000000)">
                <g id="tech-logos" transform="translate(614.000000, 311.000000)">
                    <path d="M204.264585,27.7443229 C205.696159,27.7443229 206.923485,28.2589705 207.945796,29.2882659 C208.968107,30.3175612 209.479185,31.5525298 209.479185,32.9942557 L209.479185,55.1279776 C209.479185,56.6056344 208.975643,57.8568648 207.971327,58.8861601 C206.965011,59.9156103 205.729072,60.430258 204.264585,60.430258 C202.799022,60.430258 201.555546,59.9154555 200.533389,58.8861601 C199.511078,57.8567099 199,56.6056344 199,55.1279776 L199,32.9942557 C199,31.5526847 199.511232,30.3175612 200.533389,29.2882659 C201.555546,28.2589705 202.799022,27.7443229 204.264585,27.7443229 Z M246.590127,7.87486489 C250.235656,9.76479736 253.149865,12.396888 255.330907,15.7768672 C257.511642,19.1594793 258.602702,22.8552474 258.602702,26.8702117 L211.320483,26.8702117 C211.320483,22.8543181 212.411388,19.1587049 214.592277,15.7768672 C216.773166,12.396888 219.704292,9.76479736 223.38458,7.87486489 L219.755046,1.13287194 C219.515887,0.686523883 219.600631,0.345335551 220.010047,0.103576592 C220.452377,-0.103025876 220.793045,0.00120460454 221.032204,0.411621799 L224.712492,7.20751105 C227.949528,5.76594001 231.374815,5.04360575 234.987277,5.04360575 C238.59897,5.04360575 242.023949,5.76578514 245.262215,7.20751105 L248.94235,0.411621799 C249.180432,0.00120460454 249.5211,-0.103955122 249.964507,0.103576592 C250.373,0.34425143 250.457744,0.686523883 250.219507,1.13287194 L246.590127,7.87486489 Z M225.606687,17.681203 C225.99734,17.2868927 226.193897,16.8157648 226.194974,16.2661155 C226.194974,15.7173954 225.998263,15.2471967 225.606687,14.851028 C225.214189,14.4567177 224.745406,14.2595626 224.200491,14.2595626 C223.655576,14.2595626 223.195252,14.4567177 222.820595,14.851028 C222.445937,15.2462675 222.258608,15.7173954 222.258608,16.2661155 C222.258608,16.816694 222.445937,17.2868927 222.820595,17.681203 C223.195252,18.0773717 223.6545,18.2745269 224.200491,18.2745269 C224.745406,18.2745269 225.214189,18.0773717 225.606687,17.681203 Z M247.15196,17.681203 C247.526771,17.2868927 247.713946,16.8157648 247.713946,16.2661155 C247.713946,15.7173954 247.526925,15.2471967 247.15196,14.851028 C246.77638,14.4567177 246.317132,14.2595626 245.772217,14.2595626 C245.226072,14.2595626 244.757443,14.4567177 244.365713,14.851028 C243.973369,15.2462675 243.777581,15.7173954 243.777581,16.2661155 C243.777581,16.816694 243.973369,17.2868927 244.365713,17.681203 C244.757443,18.0773717 245.226072,18.2745269 245.772217,18.2745269 C246.316209,18.2745269 246.776533,18.0773717 247.15196,17.681203 Z M211.523499,63.0034964 L211.523499,28.7214255 L258.446441,28.7214255 L258.446441,63.0045805 C258.446441,64.5844544 257.901219,65.9219498 256.811389,67.0195448 C255.719407,68.1171397 254.408259,68.6660147 252.875024,68.6660147 L249.041089,68.6660147 L249.041089,80.3508245 C249.041089,81.8266228 248.530165,83.0795568 247.507854,84.109007 C246.485543,85.1384573 245.241298,85.6531049 243.776658,85.6531049 C242.310941,85.6531049 241.067773,85.1384573 240.045462,84.109007 C239.023151,83.0795568 238.512227,81.8264679 238.512227,80.3508245 L238.512227,68.6660147 L231.458328,68.6660147 L231.458328,80.3508245 C231.458328,81.8266228 230.94725,83.0795568 229.924939,84.109007 C228.902628,85.1384573 227.658384,85.6531049 226.193743,85.6531049 C224.763093,85.6531049 223.535612,85.1384573 222.513455,84.109007 C221.491298,83.0795568 220.98022,81.8264679 220.98022,80.3508245 L220.928389,68.6649305 L217.145516,68.6649305 C215.577522,68.6649305 214.249302,68.1162105 213.158397,67.0186155 C212.068414,65.9210206 211.523499,64.5835251 211.523499,63.0034964 Z M265.707969,27.7443229 C267.17261,27.7443229 268.416854,28.2513817 269.439165,29.2627116 C270.461476,30.2759 270.972401,31.5203159 270.972401,32.9942557 L270.972401,55.1279776 C270.972401,56.6056344 270.461476,57.8567099 269.439165,58.8861601 C268.416854,59.9156103 267.17261,60.430258 265.707969,60.430258 C264.277165,60.430258 263.049838,59.9156103 262.027527,58.8861601 C261.005217,57.8567099 260.494292,56.6056344 260.494292,55.1279776 L260.494292,32.9942557 C260.494292,31.5204708 261.005371,30.2759 262.027527,29.2627116 C263.049838,28.2513817 264.276242,27.7443229 265.707969,27.7443229 Z" id="andriod"></path>
                </g>
            </g>
        </g>
    </g>
</svg>