<?xml version="1.0" encoding="UTF-8"?>
<svg width="59px" height="70px" viewBox="0 0 59 70" version="1.1" xmlns="http://www.w3.org/2000/svg" xmlns:xlink="http://www.w3.org/1999/xlink">
    <!-- Generator: Sketch 55 (78076) - https://sketchapp.com -->
    <title>ios</title>
    <desc>Created with Sketch.</desc>
    <g id="pages" stroke="none" stroke-width="1" fill="none" fill-rule="evenodd">
        <g id="Home-2560" transform="translate(-1201.000000, -8149.000000)" fill="#000000" fill-rule="nonzero">
            <g id="technologies" transform="translate(0.000000, 7666.000000)">
                <g id="tech-logos" transform="translate(614.000000, 311.000000)">
                    <g id="ios" transform="translate(587.000000, 172.000000)">
                        <path d="M56.9764096,54.3140244 C55.9375453,56.729878 54.7078691,58.9536585 53.2831409,60.9981707 C51.3411005,63.7853659 49.751002,65.7146341 48.5255661,66.7859756 C46.6259284,68.5445122 44.5906024,69.445122 42.4111073,69.4963415 C40.8464504,69.4963415 38.9595335,69.0481707 36.7630774,68.1390244 C34.5594129,67.2341463 32.5342635,66.7859756 30.6825408,66.7859756 C28.7405005,66.7859756 26.6576834,67.2341463 24.4298494,68.1390244 C22.1986232,69.0481707 20.4011758,69.5219512 19.0269067,69.5689024 C16.9368812,69.6585366 14.8536402,68.7323171 12.7742154,66.7859756 C11.4470131,65.6207317 9.78695029,63.6231707 7.7982671,60.7932927 C5.66456692,57.7713415 3.91037024,54.2670732 2.53610111,50.2719512 C1.06430593,45.9567073 0.326500226,41.7780488 0.326500226,37.732561 C0.326500226,33.0984756 1.32126585,29.1016463 3.31376529,25.7523171 C4.87969429,23.0620122 6.96293535,20.9398171 9.57027287,19.3818902 C12.1776104,17.8239634 14.9948409,17.030061 18.0287489,16.9792683 C19.6888117,16.9792683 21.8657626,17.4961585 24.5710502,18.5120122 C27.2687053,19.5312805 29.0008526,20.0481707 29.7602836,20.0481707 C30.3280548,20.0481707 32.252286,19.4437805 35.5143201,18.2388415 C38.5991112,17.1214024 41.2026325,16.6587195 43.3354846,16.8409756 C49.1149626,17.3104878 53.4569916,19.6038415 56.3446105,23.7355488 C51.1757303,26.8881098 48.6188519,31.3036585 48.6697351,36.9681098 C48.7163779,41.3802439 50.3064764,45.0518293 53.43155,47.9670732 C54.8477978,49.320122 56.4294158,50.3658537 58.1891248,51.1085366 C57.8075011,52.222561 57.4046762,53.2896341 56.9764096,54.3140244 L56.9764096,54.3140244 Z M43.7213485,1.8097561 C43.7213485,5.26796951 42.4662308,8.49689024 39.9644758,11.4855488 C36.9454087,15.0384756 33.2936945,17.0915244 29.3337132,16.767561 C29.2832541,16.3526829 29.2539963,15.9160366 29.2539963,15.4571951 C29.2539963,12.1373171 30.6897492,8.58439024 33.2394192,5.67939024 C34.512346,4.20853659 36.1312783,2.98554268 38.0945199,2.00993902 C40.0535213,1.04889024 41.9065161,0.517402439 43.649264,0.426402439 C43.7001472,0.88870122 43.7213485,1.35104268 43.7213485,1.80971341 L43.7213485,1.8097561 Z" id="Shape"></path>
                    </g>
                </g>
            </g>
        </g>
    </g>
</svg>