<?xml version="1.0" encoding="UTF-8"?>
<svg width="55px" height="75px" viewBox="0 0 55 75" version="1.1" xmlns="http://www.w3.org/2000/svg" xmlns:xlink="http://www.w3.org/1999/xlink">
    <!-- Generator: Sketch 55 (78076) - https://sketchapp.com -->
    <title>Java</title>
    <desc>Created with Sketch.</desc>
    <g id="pages" stroke="none" stroke-width="1" fill="none" fill-rule="evenodd">
        <g id="Home-2560" transform="translate(-1357.000000, -8144.000000)" fill-rule="nonzero">
            <g id="technologies" transform="translate(0.000000, 7666.000000)">
                <g id="tech-logos" transform="translate(614.000000, 311.000000)">
                    <g id="Java" transform="translate(742.592593, 166.839506)">
                        <path d="M18.1799217,57.6757919 C18.1799217,57.6757919 15.3409813,59.4053831 20.1547866,59.8995442 C25.9559589,60.6407632 29.0417916,60.5173342 35.4601352,59.2818542 C35.4601352,59.2818542 37.1881672,60.3937053 39.533323,61.2585509 C25.0919904,67.4356418 6.82431477,60.8878188 18.1799098,57.6757991 L18.1799217,57.6757919 Z M16.3284245,49.6456356 C16.3284245,49.6456356 13.2427107,51.9928669 18.0564565,52.4870184 C24.351461,53.1048084 29.2886648,53.2282374 37.8053195,51.4986939 C37.8053195,51.4986939 38.9162183,52.734124 40.7676228,53.3518616 C23.3639869,58.5406351 3.86194491,53.8460227 16.3285434,49.6456118 L16.3284245,49.6456356 Z M50.3951857,63.7293611 C50.3951857,63.7293611 52.4935182,65.4590022 48.0500204,66.8178589 C39.780163,69.2887239 13.365969,70.0299262 5.96015132,66.8178589 C3.36815081,65.7060578 8.30536655,64.0999503 9.90988112,63.8528829 C11.5144956,63.4822984 12.3784712,63.4822984 12.3784712,63.4822984 C9.53969724,61.5056017 -6.50630445,67.5591137 4.23207172,69.2887048 C33.7319319,74.1068415 58.0478386,67.1885291 50.3949622,63.729342 L50.3951857,63.7293611 Z M19.5375725,41.244771 C19.5375725,41.244771 6.08371398,44.4568383 14.7238742,45.5687013 C18.4267831,46.0628124 25.7091427,45.9393858 32.4978604,45.4451724 C38.0521642,44.9510113 43.6066107,43.9626867 43.6066107,43.9626867 C43.6066107,43.9626867 41.6316959,44.8274323 40.2739095,45.6923279 C26.5732301,49.2749368 0.282494108,47.6689246 7.81172225,43.9626867 C14.2300896,40.8740936 19.5375012,41.2447781 19.5375012,41.2447781 L19.5375725,41.244771 Z M43.6066582,54.7107683 C57.4308195,47.5453361 51.0124997,40.6270428 46.5689615,41.491886 C45.4580627,41.7389416 44.9643471,41.9860471 44.9643471,41.9860471 C44.9643471,41.9860471 45.3346475,41.2447805 46.1986136,40.9977226 C54.9622319,37.9091295 61.8743125,50.2632638 43.3598397,55.0814004 C43.3598397,55.0814004 43.4831574,54.9578715 43.6066725,54.7107659 L43.6066582,54.7107683 Z M20.8953969,74.2303823 C34.22594,75.0952279 54.5919267,73.7362213 55.0855686,67.4356347 C55.0855686,67.4356347 54.0981849,69.9064996 44.1003477,71.7595174 C32.7447289,73.8597931 18.6737467,73.6126851 10.4038179,72.2536785 C10.4038179,72.2536785 12.1318,73.7362141 20.8953731,74.2303752 L20.8953969,74.2303823 Z" id="_227268128" fill="#4E7896"></path>
                        <path d="M35.2133737,0.475996953 C35.2133737,0.475996953 42.8660598,8.25910964 27.9309427,19.995611 C15.9581764,29.5082673 25.2154841,34.9440844 27.9309427,41.1211516 C20.895404,34.820634 15.8347659,29.261176 19.2907824,24.0724025 C24.3515157,16.4128116 38.2990874,12.7066332 35.2133737,0.476020753 L35.2133737,0.475996953 Z M31.2636439,35.9324732 C34.8430233,40.0093837 30.2761627,43.7156811 30.2761627,43.7156811 C30.2761627,43.7156811 39.4099886,39.0210663 35.2133665,33.2145647 C31.3869521,27.6552495 28.4246488,24.9373409 44.4706029,15.6716569 C44.4706029,15.6716569 19.1674124,21.972341 31.2636367,35.932497 L31.2636439,35.9324732 Z" id="_230367536" fill="#F58219"></path>
                    </g>
                </g>
            </g>
        </g>
    </g>
</svg>