<?xml version="1.0" standalone="no"?>
<!DOCTYPE svg PUBLIC "-//W3C//DTD SVG 20010904//EN"
 "http://www.w3.org/TR/2001/REC-SVG-20010904/DTD/svg10.dtd">
<svg version="1.0" xmlns="http://www.w3.org/2000/svg"
 width="70.000000pt" height="74.000000pt" viewBox="0 0 70.000000 74.000000"
 preserveAspectRatio="xMidYMid meet">

<g transform="translate(0.000000,74.000000) scale(0.100000,-0.100000)"
fill="#000000" stroke="none">
<path d="M168 634 l-148 -86 0 -154 c0 -85 2 -154 4 -154 2 0 16 21 30 46 18
32 26 62 26 94 0 39 4 49 24 60 20 10 31 10 55 0 28 -11 31 -17 31 -57 0 -37
-3 -44 -16 -39 -9 3 -18 6 -20 6 -2 0 -4 11 -4 24 0 28 -17 44 -25 24 -7 -17
181 -364 201 -372 9 -3 77 30 164 81 l150 86 0 171 0 171 -27 -45 c-14 -25
-25 -55 -25 -66 1 -12 -5 -28 -14 -35 -13 -11 -17 -10 -26 4 -5 10 -13 15 -19
12 -17 -11 -9 -32 18 -44 25 -12 26 -14 10 -23 -13 -7 -27 -6 -48 2 -24 10
-29 18 -29 46 0 24 7 38 24 49 l24 16 -65 112 c-68 116 -102 157 -131 157 -9
0 -83 -39 -164 -86z m281 -128 c7 -9 11 -41 9 -82 -3 -63 -5 -70 -30 -84 -25
-13 -31 -13 -55 0 -20 11 -29 25 -31 48 -3 30 0 34 37 50 36 15 41 21 41 50 0
34 10 41 29 18z m-151 -74 c21 -16 22 -20 8 -31 -8 -7 -12 -19 -9 -27 5 -14
-13 -44 -27 -44 -4 0 -12 11 -18 25 -8 16 -17 23 -27 19 -13 -5 -15 -2 -9 22
7 29 30 53 49 53 6 1 20 -8 33 -17z"/>
<path d="M384 399 c-10 -17 13 -36 27 -22 12 12 4 33 -11 33 -5 0 -12 -5 -16
-11z"/>
</g>
</svg>
