<?xml version="1.0" encoding="UTF-8"?>
<svg width="81px" height="39px" viewBox="0 0 81 39" version="1.1" xmlns="http://www.w3.org/2000/svg" xmlns:xlink="http://www.w3.org/1999/xlink">
    <!-- Generator: Sketch 55 (78076) - https://sketchapp.com -->
    <title>php</title>
    <desc>Created with Sketch.</desc>
    <g id="pages" stroke="none" stroke-width="1" fill="none" fill-rule="evenodd">
        <g id="Home-2560" transform="translate(-1505.000000, -8168.000000)" fill="#6082BB">
            <g id="technologies" transform="translate(0.000000, 7666.000000)">
                <g id="tech-logos" transform="translate(614.000000, 311.000000)">
                    <g id="php" transform="translate(891.000000, 191.000000)">
                        <path d="M13.3132083,24.9424741 C15.6982563,24.9424741 17.4787852,24.4937614 18.6053792,23.6092488 C19.7199162,22.7338099 20.4896934,21.2170659 20.8931652,19.1013708 C21.2693562,17.1238199 21.1260346,15.743 20.4673568,14.9978368 C19.7938491,14.2367433 18.3377162,13.8507521 16.139478,13.8507521 L12.327957,13.8507521 L10.2149237,24.9424741 L13.3132083,24.9424741 Z M0.846726656,38.6054576 C0.669802469,38.6054576 0.501771407,38.5247881 0.389291557,38.3852333 C0.276607199,38.2458839 0.230947598,38.0623652 0.264748695,37.885099 L5.8647114,8.49183805 C5.91887917,8.20769019 6.16301458,8.00239041 6.44688485,8.00239041 L18.5162224,8.00239041 C22.3093647,8.00239041 25.1326721,9.05308081 26.9072733,11.1256185 C28.6913631,13.2090483 29.2423039,16.1213282 28.5446792,19.7813931 C28.2608089,21.272526 27.7725321,22.6573753 27.0934906,23.8972298 C26.4136612,25.1384948 25.5151908,26.2869902 24.4225964,27.3114623 C23.1147264,28.5601881 21.6344736,29.4656783 20.02692,29.9984828 C18.4448608,30.5242312 16.4130747,30.7908358 13.9881024,30.7908358 L9.10098224,30.7908358 L7.70533888,38.1158076 C7.65117111,38.4001578 7.40723119,38.6054576 7.12336092,38.6054576 L0.846726656,38.6054576 L0.846726656,38.6054576 Z" id="path3486" fill-rule="nonzero"></path>
                        <path d="M43.4273242,30.7908358 C43.2524691,30.7908358 43.0867869,30.7101694 42.9757477,30.5706146 C42.8643174,30.4312621 42.8192383,30.2479458 42.8526063,30.0704772 L45.2980265,17.0651339 C45.5306493,15.828306 45.4732755,14.9405644 45.136639,14.5654622 C44.9305602,14.3361673 44.3115481,13.9515866 42.4812393,13.9515866 L38.0509528,13.9515866 L34.9763702,30.3011858 C34.9228972,30.585536 34.6818895,30.7908358 34.4016523,30.7908358 L28.254436,30.7908358 C28.079584,30.7908358 27.9139048,30.7101694 27.802667,30.5706146 C27.6914353,30.4312621 27.6463531,30.2477434 27.6797211,30.0704772 L33.2079223,0.677216237 C33.2613923,0.393068381 33.502403,0.187768595 33.7826402,0.187768595 L39.9298505,0.187768595 C40.1047055,0.187768595 40.2703907,0.268438048 40.3816225,0.407790473 C40.4928602,0.547342254 40.5379364,0.730658579 40.5045684,0.908127147 L39.1705243,8.00239041 L43.9364699,8.00239041 C47.5672293,8.00239041 50.0292357,8.66386361 51.4631974,10.0247147 C52.9248641,11.4129923 53.3809308,13.6327509 52.8189014,16.6230785 L50.2468271,30.3011858 C50.1933601,30.585536 49.9525419,30.7908358 49.6721122,30.7908358 L43.4273242,30.7908358 Z" id="path3494"></path>
                        <path d="M64.1344706,24.9424741 C66.6110272,24.9424741 68.4598712,24.4937614 69.6296947,23.6092488 C70.786995,22.7340123 71.5863087,21.2172683 72.0054646,19.1013708 C72.3960885,17.1238199 72.2472722,15.743 71.563115,14.9978368 C70.863764,14.2367433 69.3517642,13.8507521 67.0691841,13.8507521 L63.1114122,13.8507521 L60.9173063,24.9424741 L64.1344706,24.9424741 L64.1344706,24.9424741 Z M51.1898624,38.6054576 C51.0061503,38.6054576 50.8316712,38.5247881 50.7148756,38.3852333 C50.5978725,38.2458839 50.550249,38.0623652 50.5853463,37.885099 L56.4001786,8.49183805 C56.4566291,8.20769019 56.7099283,8.00239041 57.0048992,8.00239041 L69.5371184,8.00239041 C73.4760033,8.00239041 76.4074357,9.05308081 78.2503338,11.1256185 C80.102874,13.2088459 80.6747498,16.1211288 79.950563,19.7813931 C79.6553876,21.272526 79.1485817,22.6573753 78.4434894,23.8972298 C77.7375701,25.1384948 76.8046279,26.2869902 75.6701122,27.3114623 C74.3120594,28.5601881 72.7750132,29.4656783 71.1057732,29.9984828 C69.463017,30.5242312 67.3532739,30.7908358 64.8352501,30.7908358 L59.7604149,30.7908358 L58.3118369,38.1158076 C58.2553894,38.4001578 58.0020872,38.6054576 57.7071193,38.6054576 L51.1898624,38.6054576 L51.1898624,38.6054576 Z" id="path3502" fill-rule="nonzero"></path>
                    </g>
                </g>
            </g>
        </g>
    </g>
</svg>