<?xml version="1.0" encoding="UTF-8"?>
<svg width="90px" height="80px" viewBox="0 0 90 80" version="1.1" xmlns="http://www.w3.org/2000/svg" xmlns:xlink="http://www.w3.org/1999/xlink">
    <!-- Generator: Sketch 55 (78076) - https://sketchapp.com -->
    <title>react</title>
    <desc>Created with Sketch.</desc>
    <g id="pages" stroke="none" stroke-width="1" fill="none" fill-rule="evenodd">
        <g id="Home-2560" transform="translate(-1018.000000, -8147.000000)" fill="#53C1DE" fill-rule="nonzero">
            <g id="technologies" transform="translate(0.000000, 7666.000000)">
                <g id="tech-logos" transform="translate(614.000000, 311.000000)">
                    <path d="M477.358701,195.833775 C486.994972,199.164516 493.221984,204.382057 493.221984,209.77682 C493.221984,215.40312 486.567334,220.904137 476.338766,224.30664 C475.798197,224.486637 475.244202,224.659498 474.679546,224.826808 C474.880927,225.640363 475.06059,226.43925 475.214587,227.221484 C477.233924,237.462692 475.678948,245.880139 470.893191,248.661771 C466.259457,251.354989 458.770459,248.709347 451.187482,242.157686 C450.363248,241.443822 449.558991,240.707027 448.775651,239.94816 C448.153739,240.551984 447.532617,241.128054 446.913865,241.671218 C439.085283,248.542037 431.045843,251.392654 426.255743,248.619348 C421.618061,245.933266 420.160616,238.097837 422.026745,228.229707 C422.230655,227.157253 422.464374,226.090729 422.72763,225.031386 C421.917281,224.799132 421.112824,224.546635 420.315008,224.274129 C410.475776,220.897793 404,215.328981 404,209.77682 C404,204.401484 410.032739,199.218833 419.478685,195.912276 C420.534553,195.542766 421.638199,195.195459 422.780936,194.869561 C422.536133,193.886269 422.316255,192.89689 422.121513,191.902382 C420.16417,181.859805 421.541457,173.83407 426.19138,171.131336 C431.04071,168.312834 439.116872,171.339483 447.174081,178.52272 C447.675261,178.970512 448.168136,179.427588 448.652453,179.893712 C449.375667,179.192711 450.116406,178.510169 450.87396,177.846739 C458.56197,171.129354 466.174167,168.319177 470.828433,171.014378 C475.682897,173.824555 477.104409,182.361339 474.930285,192.95818 C474.794434,193.616501 474.646467,194.272242 474.486457,194.925066 C475.451321,195.203699 476.40904,195.506698 477.358701,195.833775 Z M475.14942,220.68188 L475.149815,220.68188 C483.984107,217.741745 489.425304,213.242875 489.425304,209.777475 C489.425304,206.524324 484.387407,202.301972 476.127848,199.446736 C475.273846,199.151175 474.387454,198.871484 473.474597,198.605677 C472.376483,202.174226 470.911013,205.944311 469.130725,209.796518 C470.995939,213.741956 472.52066,217.561235 473.650375,221.152794 C474.160721,221.000848 474.661588,220.844141 475.14942,220.68188 Z M471.483771,227.977271 C471.344334,227.269908 471.182382,226.546677 471.000679,225.808767 C467.303825,226.666885 463.227371,227.295696 458.912334,227.680123 C456.459351,231.246688 453.945933,234.45858 451.430935,237.221378 C452.182235,237.947386 452.93156,238.633722 453.675354,239.276417 C460.162131,244.882946 466.177665,247.008603 468.990498,245.373299 C470.312185,244.604841 471.38107,242.686275 471.912747,239.808427 C472.504464,236.605659 472.376878,232.508672 471.483771,227.977271 Z M434.412529,245.09083 L434.412924,245.09083 C437.471054,244.005785 440.941175,241.849184 444.404186,238.808678 C444.983783,238.298567 445.550787,237.774201 446.104684,237.236057 C443.498439,234.426841 440.91234,231.218917 438.443162,227.72892 C434.117855,227.376628 430.071026,226.792251 426.415252,225.980153 C426.170646,226.965989 425.95331,227.95845 425.763494,228.95639 C424.167278,237.400698 425.337283,243.696736 428.15288,245.327279 C429.475753,246.093356 431.664477,246.065586 434.412529,245.09083 Z M421.538123,220.660457 C422.266807,220.909449 423.001475,221.140413 423.741462,221.35314 C424.868807,217.661607 426.354817,213.785993 428.14577,209.870706 C426.377727,206.012944 424.912652,202.198029 423.795578,198.549342 C422.76238,198.842761 421.737955,199.166496 420.723622,199.52013 C412.64221,202.349975 407.79668,206.513612 407.79668,209.777475 C407.79668,211.311614 408.914545,213.202012 411.128154,215.106296 C413.591802,217.224812 417.185955,219.166388 421.538123,220.660457 Z M425.85395,191.155961 L425.85395,191.155564 C426.035294,192.081262 426.23984,193.002223 426.467393,193.917569 C430.161482,193.076907 434.179871,192.449287 438.377591,192.058512 C440.825439,188.588748 443.387838,185.405024 445.980652,182.608504 C445.533111,182.17885 445.08636,181.763478 444.641584,181.366752 C437.682382,175.160771 431.079869,172.685202 428.09363,174.421274 C425.290277,176.051023 424.176363,182.545821 425.85395,191.155961 Z M464.353926,200.70396 C465.240602,202.24154 466.096617,203.796751 466.92146,205.368662 C468.050385,202.714566 469.009063,200.125534 469.778138,197.649568 C467.216134,197.062017 464.487833,196.581979 461.639845,196.220959 C462.576486,197.695545 463.48139,199.190225 464.353926,200.70396 Z M448.653653,185.345118 C446.867439,187.280743 445.0911,189.414335 443.357027,191.71098 C446.871459,191.545775 450.39168,191.546569 453.906037,191.71336 C452.173544,189.395292 450.412216,187.258527 448.653653,185.345118 Z M432.852653,200.730144 C433.729397,199.203399 434.641716,197.697542 435.588854,196.213818 C432.759432,196.568887 430.043771,197.036627 427.497172,197.609102 C428.272962,200.120376 429.22295,202.720914 430.333309,205.365885 C431.137069,203.801164 431.977079,202.255496 432.852653,200.730144 Z M435.670225,223.614477 C434.699875,222.102526 433.765554,220.567555 432.868058,219.010871 C431.988503,217.484834 431.144802,215.938234 430.337655,214.372353 C429.203594,217.074056 428.232672,219.730532 427.444636,222.286239 C429.990445,222.842845 432.747186,223.286782 435.670225,223.614477 Z M448.759119,234.480399 C450.505832,232.548742 452.260841,230.379445 453.998864,228.007025 C452.228845,228.08637 450.430386,228.127233 448.610992,228.127233 C446.840184,228.127233 445.097815,228.093114 443.389023,228.025671 C445.149561,230.355642 446.95197,232.521764 448.759119,234.480399 Z M466.957801,214.23469 C466.13017,215.836982 465.267133,217.420574 464.369331,218.984291 C463.486156,220.522908 462.572591,222.043726 461.62918,223.545844 C464.573154,223.191171 467.367026,222.713513 469.955101,222.120408 C469.1564,219.607943 468.150717,216.96575 466.957801,214.23469 Z M461.066298,217.071279 L461.066693,217.071279 C462.430423,214.699068 463.709602,212.278829 464.901798,209.815164 C463.697211,207.376347 462.413951,204.977533 461.054052,202.622526 C459.701794,200.273674 458.267427,197.973481 456.75363,195.726242 C454.099985,195.523118 451.374844,195.416796 448.611387,195.416796 C445.860176,195.416796 443.138589,195.522325 440.484154,195.723861 C438.954889,197.974564 437.51129,200.282792 436.156477,202.643552 L436.156477,202.642759 C434.801239,205.003017 433.534878,207.41364 432.360081,209.869516 C433.537874,212.324656 434.808073,214.733988 436.167932,217.092305 C437.534177,219.463201 438.989232,221.78134 440.529975,224.041751 C443.131874,224.211153 445.83371,224.298036 448.610992,224.298036 C451.399729,224.298036 454.136326,224.200044 456.784441,224.010013 C458.286233,221.744327 459.714274,219.430193 461.066298,217.071279 Z M468.932037,174.307414 C466.12592,172.682028 459.967393,174.95606 453.377915,180.715725 C452.678281,181.328822 451.993921,181.959281 451.325468,182.60652 C453.876412,185.366938 456.417481,188.556217 458.870068,192.063669 C463.080034,192.460395 467.101188,193.099124 470.803967,193.957242 C470.948412,193.365686 471.082209,192.771558 471.205292,192.175149 C473.083147,183.019908 471.920647,176.038725 468.932037,174.307414 Z M449.085577,201.312668 C453.541601,201.312668 457.153523,204.923753 457.153523,209.377852 C457.153523,213.83235 453.541601,217.443436 449.085577,217.443436 C444.629954,217.443436 441.017632,213.83235 441.017632,209.377852 C441.017632,204.923753 444.629954,201.312668 449.085577,201.312668 Z" id="react"></path>
                </g>
            </g>
        </g>
    </g>
</svg>