<?xml version="1.0" encoding="UTF-8"?>
<svg width="81px" height="61px" viewBox="0 0 81 61" version="1.1" xmlns="http://www.w3.org/2000/svg" xmlns:xlink="http://www.w3.org/1999/xlink">
    <!-- Generator: Sketch 55 (78076) - https://sketchapp.com -->
    <title>sass</title>
    <desc>Created with Sketch.</desc>
    <g id="pages" stroke="none" stroke-width="1" fill="none" fill-rule="evenodd">
        <g id="Home-2560" transform="translate(-1694.000000, -7989.000000)" fill="#CD6799" fill-rule="nonzero">
            <g id="technologies" transform="translate(0.000000, 7666.000000)">
                <g id="tech-logos" transform="translate(614.000000, 311.000000)">
                    <g id="sass" transform="translate(1080.000000, 12.000000)">
                        <path d="M69.095845,34.9217121 C66.3021728,34.9364469 63.8741648,35.6142524 61.8410737,36.6162255 C61.0951194,35.1280009 60.3491651,33.8018597 60.2175262,32.8293566 C60.0712607,31.694769 59.895742,31.0022289 60.0712607,29.6466181 C60.2467791,28.2910073 61.0366131,26.3607355 61.0219867,26.2133865 C61.0073602,26.0660375 60.846468,25.3734972 59.2375469,25.3587623 C57.6286259,25.3440274 56.2391031,25.6681952 56.0782112,26.0955073 C55.9173189,26.5228194 55.6101613,27.4953228 55.4053896,28.4972959 C55.1274849,29.9707859 52.1875476,35.231145 50.5054938,37.9865712 C49.9643112,36.9109236 49.4962614,35.96789 49.3938757,35.2164102 C49.2476099,34.081823 49.0720912,33.3892827 49.2476099,32.0336719 C49.4231286,30.6780611 50.2129627,28.7477892 50.1983362,28.6004402 C50.1837094,28.4530912 50.0228175,27.7605509 48.4138965,27.7458161 C46.8049755,27.7310811 45.4154526,28.055249 45.2545607,28.482561 C45.0936684,28.9098731 44.9181497,29.9118463 44.5817391,30.8843497 C44.2453282,31.8568531 40.3400381,40.6388532 39.3161795,42.9080279 C38.7896233,44.0720848 38.3362003,45.0003835 38.0144158,45.6339841 L38.0144158,45.6339841 C38.0144158,45.6339841 37.9997893,45.6781889 37.9559096,45.7518633 C37.6780052,46.2970547 37.517113,46.5917528 37.517113,46.5917528 C37.517113,46.5917528 37.517113,46.5917528 37.517113,46.6064876 C37.2977148,47.0043298 37.0636899,47.3727023 36.9466774,47.3727023 C36.8589182,47.3727023 36.698026,46.3117895 36.9759307,44.8677694 C37.5609927,41.8176452 38.9505156,37.0730076 38.9358888,36.9109236 C38.9358888,36.8225143 39.199167,35.9973597 38.0290426,35.5700479 C36.8881712,35.1427358 36.4786278,35.8500108 36.3762418,35.8500108 C36.2738558,35.8500108 36.2007231,36.1005041 36.2007231,36.1005041 C36.2007231,36.1005041 37.4732335,30.7664705 33.7727151,30.7664705 C31.4617193,30.7664705 28.2731304,33.315608 26.6934625,35.6142524 C25.6988568,36.1594437 23.5780063,37.3235009 21.3108903,38.5759673 C20.4479236,39.0622191 19.5557038,39.5484708 18.7219901,40.0052526 C18.6634839,39.946313 18.6049777,39.8726385 18.5464715,39.8136989 C14.0707457,34.9953866 5.79211571,31.5916249 6.14315303,25.1230039 C6.27479202,22.7654199 7.07925252,16.5767621 22.0422181,9.06196328 C34.3577772,2.94697993 44.157569,4.64149339 45.8542492,8.39889281 C48.2822575,13.7623963 40.603316,23.7231884 27.8782134,25.1672086 C23.0221973,25.7123999 20.4771767,23.8263327 19.8336083,23.1190575 C19.1607868,22.3823126 19.0584009,22.3381079 18.8097495,22.4854569 C18.4002059,22.7064804 18.6634839,23.3695509 18.8097495,23.7526582 C19.1900399,24.7546314 20.7550813,26.5228194 23.4024877,27.3921785 C25.7427365,28.1583932 31.4324663,28.5857053 38.3215735,25.9039536 C46.0297679,22.8980341 52.0559086,14.543346 50.2860954,7.54426861 C48.5162821,0.442046988 36.8150384,-1.90080206 25.7427365,2.06288595 C19.1607868,4.42046988 12.023028,8.13366461 6.8891073,12.9667117 C0.78983396,18.7133226 -0.175518658,23.7084535 0.219398322,25.8008093 C1.63817414,33.2271987 11.8036297,38.0602459 15.869812,41.6408264 C15.6650402,41.7587056 15.474895,41.86185 15.3140029,41.9502593 C13.2809118,42.9669672 5.52883771,47.0485346 3.5981325,51.36586 C1.40414926,56.2578469 3.94916979,59.7647529 5.63122361,60.2362698 C10.8529037,61.6950247 16.2208493,59.0722126 19.1022806,54.7401523 C21.9837119,50.4080917 21.6326745,44.7793602 20.3016581,42.2007526 C20.2870315,42.1712829 20.272405,42.1418129 20.2431518,42.1123433 C20.7697078,41.8029104 21.3108903,41.4787427 21.8374463,41.1693098 C22.8759317,40.550444 23.8997905,39.9757826 24.7773838,39.504266 C24.280081,40.8746117 23.9144171,42.5101855 23.7388984,44.8677694 C23.5195001,47.6379307 24.6457448,51.233246 26.1230269,52.6477964 C26.7812219,53.2666622 27.5564292,53.2813971 28.0537321,53.2813971 C29.7796656,53.2813971 30.554873,51.837377 31.4178398,50.1281288 C32.4709518,48.0357729 33.4216777,45.6045145 33.4216777,45.6045145 C33.4216777,45.6045145 32.2369268,52.1762795 35.4547688,52.1762795 C36.6248932,52.1762795 37.8096441,50.6438502 38.3362003,49.8629003 L38.3362003,49.8776355 C38.3362003,49.8776355 38.3654532,49.8334307 38.4239594,49.7302863 C38.5409719,49.5387326 38.6141046,49.4208534 38.6141046,49.4208534 L38.6141046,49.3913837 C39.0821545,48.5662291 40.1352665,46.6948969 41.7003077,43.585833 C43.7187724,39.5779405 45.664104,34.5680747 45.664104,34.5680747 C45.664104,34.5680747 45.8396227,35.7910712 46.4393116,37.8244875 C46.790349,39.0180143 47.5216764,40.3294203 48.1067388,41.5966216 C47.6386889,42.2596922 47.3461581,42.6280647 47.3461581,42.6280647 C47.3461581,42.6280647 47.3461581,42.6280647 47.3607845,42.6427995 C46.9804942,43.1437861 46.5709505,43.6889774 46.1175274,44.219434 C44.5232329,46.1349707 42.6217807,48.330471 42.3585028,48.9640716 C42.0513451,49.7155514 42.1244778,50.2607428 42.7095399,50.7027898 C43.13371,51.0269575 43.8942911,51.0711623 44.6694983,51.0269575 C46.1029006,50.9238131 47.1121331,50.5701757 47.609436,50.3491521 C48.3846432,50.0691891 49.2914897,49.641877 50.1398299,49.0082764 C51.7048712,47.8442192 52.6555971,46.1791755 52.5678379,43.9836755 C52.5239582,42.7754136 52.1290413,41.5671519 51.646365,40.4325647 C51.7926304,40.2262759 51.9242697,40.0199874 52.0705351,39.8136989 C54.5424229,36.1741785 56.4585015,32.1810208 56.4585015,32.1810208 C56.4585015,32.1810208 56.6340202,33.4040176 57.2337091,35.4374335 C57.5262399,36.4688766 58.1259288,37.588729 58.6524849,38.6791117 C56.3268626,40.5799136 54.8934603,42.7901487 54.3815306,44.2341688 C53.4600577,46.9159205 54.176759,48.1241822 55.5370286,48.4041454 C56.1513439,48.5367595 57.0289371,48.2420614 57.6725057,47.9620984 C58.4915927,47.6968703 59.4569454,47.2400882 60.3784181,46.5622828 C61.9434596,45.398226 63.4499947,43.777387 63.3622355,41.5818867 C63.3183557,40.5799136 63.0550778,39.5926753 62.6894139,38.6349069 C64.6639988,37.8097526 67.2090193,37.3529705 70.4561146,37.7360779 C77.4183545,38.5612325 78.7932508,42.9374976 78.5299726,44.7793602 C78.2666947,46.6212224 76.8040391,47.6231956 76.3213631,47.9326285 C75.8386867,48.2420614 75.6777945,48.3452058 75.7216743,48.5662291 C75.7801805,48.8903971 76.0142054,48.875662 76.4237488,48.8167224 C76.9941843,48.7135783 80.0803874,47.3284978 80.2120267,43.9394707 C80.4314248,39.6074104 76.3359896,34.8775073 69.095845,34.9217121 L69.095845,34.9217121 Z M15.3871357,53.1635178 C13.07614,55.6979207 9.85829794,56.655689 8.46877523,55.8452695 C6.97686666,54.9759105 7.56192883,51.233246 10.3994805,48.5514943 C12.1254139,46.9159205 14.3486503,45.398226 15.8259323,44.4699273 C16.1623431,44.2636385 16.6596459,43.9689407 17.2593347,43.6005682 C17.3617206,43.5416286 17.4202268,43.5121586 17.4202268,43.5121586 L17.4202268,43.5121586 C17.5372392,43.4384842 17.6542516,43.3648097 17.7712641,43.2911353 C18.8097495,47.122209 17.8151437,50.496501 15.3871357,53.1635178 L15.3871357,53.1635178 Z M32.2076735,41.6408264 C31.403213,43.615303 29.7211594,48.6693735 28.6973005,48.3894106 C27.8197072,48.1536521 27.2785247,44.3225781 28.5217819,40.5357088 C29.1507237,38.6349069 30.4817402,36.3657322 31.2569476,35.4816383 C32.5148312,34.0670879 33.9043541,33.5955712 34.2407647,34.1702323 C34.6649348,34.9217121 32.7049764,40.4030948 32.2076735,41.6408264 L32.2076735,41.6408264 Z M46.0882741,48.330471 C45.7518635,48.5072898 45.4300791,48.6251687 45.2838136,48.5367595 C45.1814276,48.4778198 45.4300791,48.2420614 45.4300791,48.2420614 C45.4300791,48.2420614 47.1706393,46.3559943 47.8580874,45.5013701 C48.2530042,45.0003835 48.7210541,44.4109877 49.218357,43.7479171 L49.218357,43.9394707 C49.218357,46.1939103 47.0536269,47.7116052 46.0882741,48.330471 L46.0882741,48.330471 Z M56.7949122,45.8697426 C56.5462607,45.6929237 56.5901405,45.1035279 57.4238543,43.2616653 C57.7456384,42.5396554 58.5062192,41.3313935 59.8079825,40.1673366 C59.9542483,40.6388532 60.0566339,41.095635 60.0420075,41.5229471 C60.027381,44.3667829 58.0089163,45.4276956 56.7949122,45.8697426 L56.7949122,45.8697426 Z" id="Shape"></path>
                    </g>
                </g>
            </g>
        </g>
    </g>
</svg>