<?xml version="1.0" encoding="UTF-8"?>
<svg width="80px" height="39px" viewBox="0 0 80 39" version="1.1" xmlns="http://www.w3.org/2000/svg" xmlns:xlink="http://www.w3.org/1999/xlink">
    <!-- Generator: Sketch 55 (78076) - https://sketchapp.com -->
    <title>zend</title>
    <desc>Created with Sketch.</desc>
    <g id="pages" stroke="none" stroke-width="1" fill="none" fill-rule="evenodd">
        <g id="Home-2560" transform="translate(-809.000000, -8168.000000)" fill="#6FB643" fill-rule="nonzero">
            <g id="technologies" transform="translate(0.000000, 7666.000000)">
                <g id="tech-logos" transform="translate(614.000000, 311.000000)">
                    <path d="M232.206023,202.038439 C232.206023,202.038439 232.206023,191.533024 242.682277,191.533024 L274.110159,191.533024 C274.110159,191.533024 274.110159,202.038439 263.634125,202.038439 L232.206023,202.038439 Z M232.206023,215.461902 C232.206023,215.461902 232.206023,204.956487 242.682277,204.956487 L258.396108,204.956487 C258.396108,204.956487 258.396108,215.461902 247.919854,215.461902 L232.206023,215.461902 Z M232.206023,228.885365 C232.206023,228.885365 232.206023,218.380171 242.682277,218.380171 L247.919854,218.380171 C247.919854,218.380171 247.919854,228.885365 237.44426,228.885365 L232.206023,228.885365 Z M228.689047,220.687218 L228.689047,229.068047 L195,229.068047 L216.702339,199.38127 L198.071572,199.38127 L198.071572,191 L233.216664,191 L211.614552,220.687218 L228.689047,220.687218 Z" id="zend"></path>
                </g>
            </g>
        </g>
    </g>
</svg>